HIERARCHY
ROOT Hips
{
  OFFSET 54.8796 86.3125 18.5085
  CHANNELS 6 Xposition Yposition Zposition Zrotation Xrotation Yrotation
  JOINT spine
  {
    OFFSET 0 6.84637 0.3937
    CHANNELS 3 Zrotation Xrotation Yrotation
    JOINT spine1
    {
      OFFSET 0 9.49621 0
      CHANNELS 3 Zrotation Xrotation Yrotation
      JOINT spine2
      {
        OFFSET 0 9.09909 0
        CHANNELS 3 Zrotation Xrotation Yrotation
        JOINT Neck
        {
          OFFSET 0 23.3612 1.11378
          CHANNELS 3 Zrotation Xrotation Yrotation
          JOINT Head
          {
            OFFSET 0 7.05802 0
            CHANNELS 3 Zrotation Xrotation Yrotation
            End Site
            {
              OFFSET 0 17.0844 -5.63419
            }
          }
        }
        JOINT RightShoulder
        {
          OFFSET -3.83136 9.82631 -0.533491
          CHANNELS 3 Zrotation Xrotation Yrotation
          JOINT RightArm
          {
            OFFSET 0 12.8881 0
            CHANNELS 3 Zrotation Xrotation Yrotation
            JOINT RightArmRoll
            {
              OFFSET 0 6.50617 0
              CHANNELS 3 Zrotation Xrotation Yrotation
              JOINT RightForeArm
              {
                OFFSET 0 18.9501 0
                CHANNELS 3 Zrotation Xrotation Yrotation
                JOINT RightForeArmRoll
                {
                  OFFSET 0 7.30093 0
                  CHANNELS 3 Zrotation Xrotation Yrotation
                  JOINT RightHand
                  {
                    OFFSET 0 14.6514 0
                    CHANNELS 3 Zrotation Xrotation Yrotation
                    End Site
                    {
                      OFFSET 0 0 0
                    }
                  }
                }
              }
            }
          }
        }
        JOINT LeftShoulder
        {
          OFFSET 3.83136 9.82631 -0.533491
          CHANNELS 3 Zrotation Xrotation Yrotation
          JOINT LeftArm
          {
            OFFSET 0 12.8881 0
            CHANNELS 3 Zrotation Xrotation Yrotation
            JOINT LeftArmRoll
            {
              OFFSET 0 6.50617 0
              CHANNELS 3 Zrotation Xrotation Yrotation
              JOINT LeftForeArm
              {
                OFFSET 0 18.9501 0
                CHANNELS 3 Zrotation Xrotation Yrotation
                JOINT LeftForeArmRoll
                {
                  OFFSET 0 7.30092 0
                  CHANNELS 3 Zrotation Xrotation Yrotation
                  JOINT LeftHand
                  {
                    OFFSET 0 14.6514 0
                    CHANNELS 3 Zrotation Xrotation Yrotation
                    End Site
                    {
                      OFFSET 0 0 0
                    }
                  }
                }
              }
            }
          }
        }
      }
    }
  }
  JOINT RightUpLeg
  {
    OFFSET -6.06837 -1.11278 -0.933477
    CHANNELS 3 Zrotation Xrotation Yrotation
    JOINT RightUpLegRoll
    {
      OFFSET 0 17.1796 0
      CHANNELS 3 Zrotation Xrotation Yrotation
      JOINT RightLeg
      {
        OFFSET 0 -21.2743 0
        CHANNELS 3 Zrotation Xrotation Yrotation
        JOINT RightLegRoll
        {
          OFFSET 0 21.3439 0
          CHANNELS 3 Zrotation Xrotation Yrotation
          JOINT RightFoot
          {
            OFFSET 0 17.7652 0
            CHANNELS 3 Zrotation Xrotation Yrotation
            JOINT RightToeBase
            {
              OFFSET 0 14.8508 0
              CHANNELS 3 Zrotation Xrotation Yrotation
              End Site
              {
                OFFSET 0.0062947 7.19214 -0.829004
              }
            }
          }
        }
      }
    }
  }
  JOINT LeftUpLeg
  {
    OFFSET 6.06837 -1.11278 -0.933477
    CHANNELS 3 Zrotation Xrotation Yrotation
    JOINT LeftUpLegRoll
    {
      OFFSET 0 17.1797 0
      CHANNELS 3 Zrotation Xrotation Yrotation
      JOINT LeftLeg
      {
        OFFSET 0 21.2742 0
        CHANNELS 3 Zrotation Xrotation Yrotation
        JOINT LeftLegRoll
        {
          OFFSET 0 21.5412 0
          CHANNELS 3 Zrotation Xrotation Yrotation
          JOINT LeftFoot
          {
            OFFSET 0 17.5679 0
            CHANNELS 3 Zrotation Xrotation Yrotation
            JOINT LeftToeBase
            {
              OFFSET 0 14.8508 0
              CHANNELS 3 Zrotation Xrotation Yrotation
              End Site
              {
                OFFSET -0.0282102 7.19213 -0.829005
              }
            }
          }
        }
      }
    }
  }
}
MOTION
Frames: 12
Frame Time: 0.00208333
59.1053 91.4856 30.2918 -2.03868 7.27471 -4.04213 1.14942 -2.45736 0.386792 2.30779 -0.906566 0.673463 2.29988 0.737687 0.63491 -22.5729 -1.83481 -7.11162 23.6578 13.646 -11.9922 31.7673 -10.3555 -6.47698 44.8369 40.1855 71.2119 -8.51971e-006 -4.07063e-006 -3.91486e-006 -4.07253 0.539504 0.853959 -4.17534e-006 -7.06271e-007 -3.01344 8.02886 -4.95147 0.697692 -56.2005 -10.6516 6.59978 -17.1525 52.6325 -101.421 -6.54774e-006 -1.65881e-005 5.83263e-006 14.776 2.58297 -4.63272 1.81949e-005 6.23561e-006 3.00512 -8.02888 -4.9514 -0.697667 178.203 14.3234 -2.49429 180 -1.52573e-005 179.207 177.25 11.1538 -179.845 -1.49799e-006 -6.72004e-007 0.0554859 -16.176 64.638 17.1316 8.1402 25.2325 -3.48932 -173.842 15.9959 -3.46907 4.54188e-006 -4.6773e-006 -0.808252 -3.23449 -22.6091 -0.248072 2.67413e-006 -6.3935e-006 -0.374037 23.1959 72.7825 -24.5965 -8.12777 25.2331 3.48402 
59.1252 91.4372 30.2976 -2.06044 7.22843 -3.96925 1.13381 -2.46898 0.402046 2.27715 -0.929679 0.705544 2.26884 0.71459 0.667503 -22.4137 -1.3831 -7.10675 23.6322 13.4942 -12.0106 31.6016 -10.3715 -6.49327 44.1582 40.6007 71.6609 -8.51971e-006 -4.07063e-006 -3.91486e-006 -4.12046 0.477036 0.857147 -4.17534e-006 -7.06271e-007 -3.01467 8.02886 -4.95147 0.697692 -55.6898 -10.5124 6.50254 -16.2554 53.1113 -102.556 -6.54774e-006 -1.65881e-005 5.83263e-006 14.9614 3.11085 -4.74507 1.81949e-005 6.23561e-006 3.00509 -8.02888 -4.9514 -0.697667 178.224 14.308 -2.43477 180 -1.52573e-005 179.206 177.175 11.2467 -179.837 -1.49799e-006 -6.72004e-007 0.0621592 -16.1727 64.6448 17.1363 8.14022 25.2325 -3.48933 -173.809 16.0975 -3.49827 4.54188e-006 -4.6773e-006 -0.807831 -3.2193 -22.9121 -0.246994 2.67413e-006 -6.3935e-006 -0.379751 23.2411 72.8153 -24.6435 -8.1276 25.2332 3.48395 
59.0846 91.396 30.2947 -2.08152 7.18603 -3.89473 1.11772 -2.48235 0.418288 2.2456 -0.956253 0.739682 2.23687 0.688032 0.702167 -22.2385 -0.918395 -7.10356 23.5902 13.3355 -12.0281 31.4381 -10.3898 -6.51189 43.4749 41.0103 72.1071 -8.51971e-006 -4.07063e-006 -3.91486e-006 -4.16692 0.414216 0.860057 -4.17534e-006 -7.06271e-007 -3.01597 8.02886 -4.95147 0.697692 -55.1573 -10.3676 6.40153 -15.373 53.5958 -103.69 -6.54774e-006 -1.65881e-005 5.83263e-006 15.1391 3.68131 -4.86089 1.81949e-005 6.23561e-006 3.00506 -8.02888 -4.9514 -0.697667 178.24 14.2973 -2.36925 180 -1.52573e-005 179.204 177.093 11.3333 -179.828 -1.49799e-006 -6.72004e-007 0.0691765 -16.1716 64.6553 17.1434 8.14024 25.2325 -3.48934 -173.779 16.1972 -3.52514 4.54188e-006 -4.6773e-006 -0.807346 -3.20421 -23.1991 -0.245591 2.67413e-006 -6.3935e-006 -0.385216 23.2847 72.8466 -24.6887 -8.12745 25.2332 3.48388 
59.0919 91.3572 30.317 -2.10173 7.14701 -3.81923 1.10132 -2.49693 0.434992 2.21348 -0.985234 0.774796 2.20431 0.659067 0.737817 -22.052 -0.447233 -7.10146 23.5353 13.1738 -12.0446 31.2732 -10.4101 -6.53262 42.7904 41.4176 72.552 -8.51971e-006 -4.07063e-006 -3.91486e-006 -4.21271 0.351827 0.862868 -4.17534e-006 -7.06271e-007 -3.01731 8.02886 -4.95147 0.697692 -54.6082 -10.2203 6.29904 -14.4932 54.0834 -104.83 -6.54774e-006 -1.65881e-005 5.83263e-006 15.3114 4.28216 -4.97913 1.81949e-005 6.23561e-006 3.00503 -8.02888 -4.9514 -0.697667 178.253 14.2902 -2.29848 180 -1.52573e-005 179.203 177.006 11.4135 -179.82 -1.49799e-006 -6.72004e-007 0.0764433 -16.1722 64.6689 17.1523 8.14026 25.2325 -3.48934 -173.751 16.2937 -3.54957 4.54188e-006 -4.6773e-006 -0.806826 -3.1894 -23.4685 -0.24392 2.67413e-006 -6.3935e-006 -0.390399 23.3264 72.8762 -24.7317 -8.12729 25.2332 3.48381 
59.0289 91.291 30.3111 -2.12089 7.11091 -3.74338 1.08477 -2.5122 0.451629 2.18109 -1.01557 0.809806 2.17148 0.628751 0.773366 -21.859 0.0238387 -7.09985 23.4708 13.013 -12.0599 31.1032 -10.432 -6.55528 42.1074 41.8256 72.9973 -8.51971e-006 -4.07063e-006 -3.91486e-006 -4.25863 0.290651 0.865762 -4.17534e-006 -7.06271e-007 -3.01868 8.02886 -4.95147 0.697692 -54.0477 -10.0739 6.19732 -13.604 54.5707 -105.985 -6.54774e-006 -1.65881e-005 5.83263e-006 15.48 4.90124 -5.09868 1.81949e-005 6.23561e-006 3.005 -8.02888 -4.9514 -0.697667 178.262 14.2858 -2.22323 180 -1.52573e-005 179.201 176.916 11.4877 -179.811 -1.49799e-006 -6.72004e-007 0.0838655 -16.1745 64.6848 17.1626 8.14028 25.2325 -3.48935 -173.725 16.3855 -3.57149 4.54188e-006 -4.6773e-006 -0.806301 -3.17505 -23.7185 -0.242037 2.67413e-006 -6.3935e-006 -0.395271 23.3659 72.904 -24.7722 -8.12714 25.2332 3.48375 
59.0454 91.2126 30.3099 -2.13883 7.07724 -3.66784 1.06825 -2.52762 0.467672 2.14874 -1.04619 0.84363 2.1387 0.59814 0.807728 -21.6642 0.488281 -7.09807 23.4 12.8569 -12.074 30.9244 -10.4553 -6.57964 41.4287 42.2374 73.4451 -8.51971e-006 -4.07063e-006 -3.91486e-006 -4.30549 0.231471 0.868916 -4.17534e-006 -7.06271e-007 -3.02006 8.02886 -4.95147 0.697692 -53.481 -9.9315 6.09863 -12.6934 55.054 -107.161 -6.54774e-006 -1.65881e-005 5.83263e-006 15.6467 5.52637 -5.21838 1.81949e-005 6.23561e-006 3.00497 -8.02888 -4.9514 -0.697667 178.268 14.2829 -2.14426 180 -1.52573e-005 179.2 176.822 11.556 -179.803 -1.49799e-006 -6.72004e-007 0.0913486 -16.1779 64.7023 17.174 8.1403 25.2325 -3.48936 -173.703 16.4713 -3.5908 4.54188e-006 -4.6773e-006 -0.805798 -3.16133 -23.9473 -0.239997 2.67413e-006 -6.3935e-006 -0.3998 23.4029 72.9298 -24.8099 -8.12699 25.2332 3.48368 
59.0056 91.1541 30.2944 -2.15535 7.04551 -3.59326 1.05192 -2.54267 0.482593 2.11675 -1.07606 0.875188 2.10631 0.568288 0.839817 -21.4724 0.939555 -7.09546 23.3264 12.7094 -12.0866 30.7331 -10.4796 -6.60549 40.7568 42.6559 73.8977 -8.51971e-006 -4.07063e-006 -3.91486e-006 -4.35408 0.175071 0.87251 -4.17534e-006 -7.06271e-007 -3.02143 8.02886 -4.95147 0.697692 -52.9136 -9.79648 6.00522 -11.7492 55.5294 -108.367 -6.54774e-006 -1.65881e-005 5.83263e-006 15.8132 6.1454 -5.33703 1.81949e-005 6.23561e-006 3.00494 -8.02888 -4.9514 -0.697667 178.27 14.2805 -2.06233 180 -1.52573e-005 179.199 176.726 11.6186 -179.794 -1.49799e-006 -6.72004e-007 0.0987985 -16.1821 64.7208 17.186 8.14033 25.2325 -3.48937 -173.683 16.5497 -3.60741 4.54188e-006 -4.6773e-006 -0.805349 -3.14844 -24.1533 -0.237859 2.67413e-006 -6.3935e-006 -0.403955 23.4371 72.9534 -24.8446 -8.12684 25.2332 3.48362 
59.0216 91.0801 30.2878 -2.17027 7.01525 -3.52029 1.03593 -2.55681 0.495864 2.0854 -1.10411 0.903397 2.07462 0.540251 0.868547 -21.2885 1.37112 -7.09133 23.2533 12.5744 -12.0978 30.5255 -10.5046 -6.63264 40.094 43.0841 74.3578 -8.51971e-006 -4.07063e-006 -3.91486e-006 -4.40522 0.122232 0.876724 -4.17534e-006 -7.06271e-007 -3.02277 8.02886 -4.95147 0.697692 -52.3508 -9.67208 5.91933 -10.7597 55.9922 -109.61 -6.54774e-006 -1.65881e-005 5.83263e-006 15.9808 6.7462 -5.45334 1.81949e-005 6.23561e-006 3.00491 -8.02888 -4.9514 -0.697667 178.268 14.2775 -1.97821 180 -1.52573e-005 179.198 176.63 11.6756 -179.786 -1.49799e-006 -6.72004e-007 0.106121 -16.1869 64.7396 17.1981 8.14035 25.2325 -3.48938 -173.666 16.6192 -3.62123 4.54188e-006 -4.6773e-006 -0.804981 -3.13655 -24.3347 -0.235681 2.67413e-006 -6.3935e-006 -0.407706 23.4681 72.9748 -24.8759 -8.1267 25.2332 3.48356 
58.9859 91.0075 30.2802 -2.18341 6.98597 -3.44959 1.02046 -2.56952 0.506958 2.05501 -1.12929 0.927178 2.04392 0.515084 0.892832 -21.1174 1.77646 -7.08497 23.1842 12.4557 -12.1072 30.298 -10.5301 -6.66087 39.4423 43.5249 74.8285 -8.51971e-006 -4.07063e-006 -3.91486e-006 -4.4597 0.0737376 0.881738 -4.17534e-006 -7.06271e-007 -3.02407 8.02886 -4.95147 0.697692 -51.798 -9.56157 5.84317 -9.71326 56.4375 -110.898 -6.54774e-006 -1.65881e-005 5.83263e-006 16.151 7.31665 -5.56596 1.81949e-005 6.23561e-006 3.00488 -8.02888 -4.9514 -0.697667 178.264 14.2728 -1.89267 180 -1.52573e-005 179.196 176.533 11.7273 -179.777 -1.49799e-006 -6.72004e-007 0.113221 -16.1919 64.7579 17.2099 8.14037 25.2325 -3.48939 -173.652 16.6785 -3.63216 4.54188e-006 -4.6773e-006 -0.804723 -3.12584 -24.4897 -0.233521 2.67413e-006 -6.3935e-006 -0.411022 23.4957 72.9937 -24.9036 -8.12656 25.2332 3.4835 
58.9754 90.9494 30.314 -2.19458 6.9572 -3.3818 1.00567 -2.58026 0.515347 2.02587 -1.15055 0.945447 2.01455 0.493842 0.911586 -20.9638 2.14902 -7.07563 23.1224 12.3574 -12.1148 30.0469 -10.5557 -6.68997 38.8035 43.9809 75.3133 -8.51971e-006 -4.07063e-006 -3.91486e-006 -4.51833 0.0303709 0.88773 -4.17534e-006 -7.06271e-007 -3.02531 8.02886 -4.95147 0.697692 -51.2606 -9.46823 5.77897 -8.5986 56.8598 -112.239 -6.54774e-006 -1.65881e-005 5.83263e-006 16.3247 7.84464 -5.6735 1.81949e-005 6.23561e-006 3.00485 -8.02888 -4.9514 -0.697667 178.256 14.2654 -1.80648 180 -1.52573e-005 179.195 176.438 11.7738 -179.769 -1.49799e-006 -6.72004e-007 0.120005 -16.1967 64.775 17.221 8.14039 25.2325 -3.4894 -173.643 16.7262 -3.64012 4.54188e-006 -4.6773e-006 -0.804606 -3.11652 -24.6166 -0.231439 2.67413e-006 -6.3935e-006 -0.413871 23.5194 73.0101 -24.9272 -8.12643 25.2332 3.48345 
58.94 90.8521 30.282 -2.20359 6.92844 -3.31757 0.991711 -2.58852 0.520503 1.99826 -1.16682 0.957125 1.98679 0.47758 0.923723 -20.8326 2.48227 -7.06257 23.0713 12.2831 -12.1205 29.7684 -10.5811 -6.71973 38.1788 44.4549 75.816 -8.51971e-006 -4.07063e-006 -3.91486e-006 -4.58192 -0.00708552 0.89488 -4.17534e-006 -7.06271e-007 -3.02647 8.02886 -4.95147 0.697692 -50.744 -9.39533 5.72895 -7.4051 57.2531 -113.64 -6.54774e-006 -1.65881e-005 5.83263e-006 16.5032 8.31808 -5.77446 1.81949e-005 6.23561e-006 3.00482 -8.02888 -4.9514 -0.697667 178.246 14.2543 -1.72041 180 -1.52573e-005 179.194 176.345 11.8154 -179.761 -1.49799e-006 -6.72004e-007 0.126379 -16.201 64.7903 17.2309 8.14041 25.2324 -3.48941 -173.637 16.7609 -3.64502 4.54188e-006 -4.6773e-006 -0.804657 -3.10875 -24.7138 -0.229494 2.67413e-006 -6.3935e-006 -0.416224 23.5391 73.0237 -24.9466 -8.1263 25.2332 3.48339 
58.9509 90.7884 30.2608 -2.21025 6.89922 -3.25756 0.978752 -2.59375 0.521899 1.97249 -1.17706 0.96113 1.96097 0.467354 0.928157 -20.7287 2.76969 -7.04502 23.0343 12.2368 -12.124 29.4589 -10.6061 -6.74995 37.5695 44.9493 76.3411 -8.51971e-006 -4.07063e-006 -3.91486e-006 -4.65125 -0.0378488 0.903368 -4.17534e-006 -7.06271e-007 -3.02754 8.02886 -4.95147 0.697692 -50.2537 -9.34615 5.69533 -6.12296 57.611 -115.106 -6.54774e-006 -1.65881e-005 5.83263e-006 16.6873 8.72489 -5.86732 1.81949e-005 6.23561e-006 3.00479 -8.02888 -4.9514 -0.697667 178.233 14.2383 -1.63524 180 -1.52573e-005 179.192 176.256 11.8521 -179.753 -1.49799e-006 -6.72004e-007 0.132248 -16.2044 64.8031 17.2392 8.14044 25.2324 -3.48942 -173.635 16.7812 -3.64676 4.54188e-006 -4.6773e-006 -0.804907 -3.10273 -24.7794 -0.227747 2.67413e-006 -6.3935e-006 -0.418049 23.5544 73.0345 -24.9614 -8.12618 25.2332 3.48334 
